<?xml version="1.0" encoding="UTF-8" standalone="no"?>
<!DOCTYPE svg PUBLIC "-//W3C//DTD SVG 1.1//EN" "http://www.w3.org/Graphics/SVG/1.1/DTD/svg11.dtd">
<svg width="100%" height="100%" viewBox="0 0 3105 1534" version="1.1" xmlns="http://www.w3.org/2000/svg" xmlns:xlink="http://www.w3.org/1999/xlink" xml:space="preserve" xmlns:serif="http://www.serif.com/" style="fill-rule:evenodd;clip-rule:evenodd;stroke-linejoin:round;stroke-miterlimit:1.41421;">
    <g transform="matrix(4.16667,0,0,4.16667,0,0)">
        <path d="M288.525,32.427C80.078,101.367 51.269,302.57 79.662,335.366C106.833,366.751 437.472,124.156 323.104,113.559C260.088,107.719 170.539,137.458 150.046,154.873C278.796,-46.206 780.63,-45.876 742.233,124.117C721.476,216.025 483.75,318.335 352.603,346.199C-147.333,452.414 -66.293,141.759 288.525,32.427Z" style="fill:rgb(35,31,32);"/>
        <path d="M408.215,240.003L366.361,240.003L435.607,49.748L477.461,49.748L408.215,240.003Z" style="fill:white;"/>
        <path d="M520.814,213.309C518.111,220.738 512.078,227.351 502.724,233.149C491.945,239.855 479.944,243.202 466.719,243.202C452.587,243.202 442.193,240.398 435.536,234.778C428.36,228.621 426.783,220.011 430.806,208.96L475.42,86.383C479.838,74.24 486.544,65.274 495.541,59.472C505.951,52.77 519.856,49.419 537.25,49.419C552.289,49.419 562.304,52.77 567.292,59.472C571.525,65.274 571.826,73.154 568.199,83.119L555.636,117.637L517.585,117.637L531.335,79.859C531.929,78.226 531.907,77.047 531.264,76.326C530.62,75.601 529.304,75.24 527.31,75.24C525.315,75.24 523.643,75.601 522.294,76.326C521.123,77.047 520.244,78.226 519.646,79.859L471.571,211.949C471.042,213.401 471.156,214.58 471.915,215.483C472.921,216.21 474.24,216.568 475.869,216.568C477.866,216.568 479.443,216.21 480.615,215.483C481.849,214.58 482.731,213.401 483.259,211.949L500.372,164.926L538.423,164.926L520.814,213.309Z" style="fill:white;"/>
        <path d="M658.313,75.24L621.891,75.24L603.195,126.607L635.81,126.607L627.402,149.707L594.787,149.707L561.549,241.029L519.695,241.029L575.998,86.337C579.983,75.101 586.449,66.157 596.045,59.44C608.591,52.44 621.226,49.404 637.287,49.404C650.346,49.404 667.29,49.404 667.29,49.404L658.313,75.24Z" style="fill:white;"/>
    </g>
</svg>
